<svg width="31" height="31" viewBox="0 0 31 31" fill="none" xmlns="http://www.w3.org/2000/svg">
<path d="M29.4011 4.89474H26.1053V1.59895C26.1053 0.717895 25.3874 0 24.5063 0H24.4574C23.56 0 22.8421 0.717895 22.8421 1.59895V4.89474H19.5626C18.6816 4.89474 17.9637 5.61263 17.9474 6.49368V6.54263C17.9474 7.44 18.6653 8.15789 19.5626 8.15789H22.8421V11.4374C22.8421 12.3184 23.56 13.0526 24.4574 13.0363H24.5063C25.3874 13.0363 26.1053 12.3184 26.1053 11.4374V8.15789H29.4011C30.2821 8.15789 31 7.44 31 6.55895V6.49368C31 5.61263 30.2821 4.89474 29.4011 4.89474ZM21.2105 11.4374V9.78947H19.5626C18.6979 9.78947 17.8821 9.44684 17.2621 8.84316C16.6584 8.22316 16.3158 7.40737 16.3158 6.49368C16.3158 5.90632 16.4789 5.36789 16.7563 4.89474H3.26316C1.46842 4.89474 0 6.36316 0 8.15789V27.7368C0 29.5316 1.46842 31 3.26316 31H22.8421C24.6368 31 26.1053 29.5316 26.1053 27.7368V14.2274C25.6158 14.5047 25.0611 14.6842 24.4411 14.6842C22.6626 14.6679 21.2105 13.2158 21.2105 11.4374ZM21.1453 27.7368H4.89474C4.22579 27.7368 3.83421 26.97 4.24211 26.4316L7.47263 22.1405C7.81526 21.6837 8.48421 21.7163 8.81053 22.1732L11.4211 26.1053L15.6795 20.4274C16.0058 20.0032 16.6421 19.9868 16.9684 20.4111L21.7816 26.4153C22.2058 26.9537 21.8305 27.7368 21.1453 27.7368Z" fill="#A7A7A7"/>
</svg>
